# xmcd
#
# Track frame offsets:
#	150
#	19284
#	32575
#	49281
#	62783
#	78341
#	98269
#	111778
#	133125
#	155867
#	172079
#	183992
#	195717
#	216261
#
# Disc length: 3069 seconds
#
# Revision: 1
# Processed by: cddbd v1.5.2PL0 Copyright (c) Steve Scherf et al.
# Submitted via: audiograbber 1.83.01
#
DISCID=c50bfb0e
DTITLE=Reeltoreal Volume 1 Aus - Reeltoreal Volume 1 Aus
DYEAR=1900
DGENRE=Country
TTITLE0=Wayne Mulraney - My Heart Cries
TTITLE1=Kathy Sunners - City Night Lights
TTITLE2=Brian Boyce - Make The Move
TTITLE3=Heather Botica - Winter Winds
TTITLE4=Ian Scott - I'd Be a Legend In My Time
TTITLE5=Al Cooper - She's Gone
TTITLE6=Lance Ellis and Kathy Sunners - Talk Back Trembling Lips
TTITLE7=Jim and Di Ellis - Little Joe
TTITLE8=Al Cooper - Scarlet Lady
TTITLE9=Wayne Mulraney - Little Boy Lost
TTITLE10=Kathy Sunners and Lance Ellis - Will The Circle Be Unbroken
TTITLE11=Jennifer Salmon - Love
TTITLE12=Lance Ellis - Clancy Of The Overflow
TTITLE13=Instrumental - You're Cheating Heart
EXTD=
EXTT0=
EXTT1=
EXTT2=
EXTT3=
EXTT4=
EXTT5=
EXTT6=
EXTT7=
EXTT8=
EXTT9=
EXTT10=
EXTT11=
EXTT12=
EXTT13=
PLAYORDER=
